<svg xmlns="http://www.w3.org/2000/svg" xmlns:xlink="http://www.w3.org/1999/xlink" width="506" zoomAndPan="magnify" viewBox="0 0 379.5 42.75" height="57" preserveAspectRatio="xMidYMid meet" version="1.0"><defs><g/></defs><g fill="#e81e11" fill-opacity="1"><g transform="translate(22.842029, 33.895576)"><g><path d="M -0.3125 -28.234375 C -0.3125 -27.859375 0.0625 -27.828125 0.15625 -27.796875 C 1.640625 -27.296875 1.515625 -25.75 1.515625 -25.359375 L 1.515625 -3.734375 C 1.515625 -1.921875 1.265625 -0.859375 0.40625 0 L 8.15625 0 C 9.515625 0 9.90625 -0.984375 9.90625 -2.59375 L 9.90625 -2.90625 C 9.90625 -3.359375 10.25 -3.125 10.46875 -2.78125 C 12.171875 -0.09375 14.078125 0.46875 15.71875 0.46875 C 21.40625 0.46875 24.671875 -4.484375 24.671875 -10.625 C 24.671875 -16.3125 21.953125 -22.609375 15.71875 -22.609375 C 12.203125 -22.609375 11.03125 -20.109375 10.40625 -20.109375 C 10.1875 -20.109375 10.03125 -20.140625 9.90625 -20.4375 L 9.90625 -30.859375 C 9.90625 -31.5 9.859375 -32.09375 8.953125 -32.09375 C 7.078125 -32.09375 1.296875 -29.1875 0.03125 -28.65625 C -0.03125 -28.625 -0.3125 -28.5625 -0.3125 -28.234375 Z M 9.90625 -8.46875 L 9.90625 -14.640625 C 9.90625 -16.25 10.21875 -19.296875 12.171875 -19.296875 C 15.6875 -19.296875 16.3125 -14.953125 16.3125 -11.515625 C 16.3125 -7.84375 16.1875 -3.484375 12.6875 -3.484375 C 10.15625 -3.484375 9.90625 -6.734375 9.90625 -8.46875 Z M 9.90625 -8.46875 "/></g></g></g><g fill="#e81e11" fill-opacity="1"><g transform="translate(48.29599, 33.895576)"><g><path d="M 4.015625 -2.78125 C 6.171875 -0.59375 8.984375 0.46875 11.859375 0.46875 C 14.796875 0.46875 17.8125 -0.703125 20.109375 -3.03125 C 24.640625 -7.625 24.765625 -14.890625 20.359375 -19.328125 C 18.21875 -21.5 15.40625 -22.578125 12.53125 -22.578125 C 9.578125 -22.578125 6.578125 -21.40625 4.265625 -19.09375 C -0.28125 -14.515625 -0.375 -7.234375 4.015625 -2.78125 Z M 10.65625 -20.90625 C 12.71875 -21.21875 15.046875 -17.046875 15.875 -11.578125 C 16.703125 -6.015625 15.71875 -1.359375 13.6875 -1.046875 C 11.640625 -0.734375 9.296875 -4.875 8.4375 -10.375 C 7.59375 -15.90625 8.578125 -20.59375 10.65625 -20.90625 Z M 10.65625 -20.90625 "/></g></g></g><g fill="#e81e11" fill-opacity="1"><g transform="translate(72.674875, 33.895576)"><g><path d="M 10.90625 0 C 10.0625 -0.859375 9.796875 -1.921875 9.796875 -3.734375 L 9.796875 -12.328125 C 9.796875 -15.84375 11.125 -16.828125 12.59375 -16.828125 C 13.984375 -16.828125 14.390625 -15.46875 14.390625 -14.015625 L 14.390625 -3.734375 C 14.390625 -1.921875 14.140625 -0.859375 13.28125 0 L 23.875 0 C 23.015625 -0.859375 22.765625 -1.921875 22.765625 -3.734375 L 22.765625 -9.140625 L 22.734375 -15.1875 C 22.734375 -18.46875 21.953125 -22.609375 17.328125 -22.609375 C 11.984375 -22.609375 11.328125 -18.21875 10.03125 -18.21875 C 9.90625 -18.21875 9.796875 -18.21875 9.796875 -18.96875 L 9.796875 -19.515625 C 9.796875 -21.125 9.421875 -22.140625 8.0625 -22.140625 L 0.3125 -22.140625 C 1.171875 -21.28125 1.421875 -20.203125 1.421875 -18.40625 L 1.421875 -3.734375 C 1.421875 -1.921875 1.171875 -0.859375 0.3125 0 Z M 10.90625 0 "/></g></g></g><g fill="#e81e11" fill-opacity="1"><g transform="translate(96.705948, 33.895576)"><g><path d="M 0 -18.75 C 0 -18.375 0.375 -18.34375 0.46875 -18.3125 C 1.671875 -17.90625 1.515625 -16.25 1.515625 -15.875 L 1.515625 -3.734375 C 1.515625 -1.921875 1.265625 -0.859375 0.40625 0 L 11 0 C 10.15625 -0.859375 9.90625 -1.921875 9.90625 -3.734375 L 9.90625 -21.375 C 9.90625 -22.015625 9.859375 -22.609375 8.953125 -22.609375 C 7.078125 -22.609375 1.578125 -19.765625 0.34375 -19.171875 C 0.28125 -19.140625 0 -19.0625 0 -18.75 Z M 5.625 -33.484375 C 2.84375 -33.484375 1.015625 -31.65625 1.015625 -28.875 C 1.015625 -26.09375 2.84375 -24.25 5.625 -24.25 C 8.40625 -24.25 10.25 -26.09375 10.25 -28.875 C 10.25 -31.65625 8.40625 -33.484375 5.625 -33.484375 Z M 5.625 -33.484375 "/></g></g></g><g fill="#e81e11" fill-opacity="1"><g transform="translate(107.867752, 33.895576)"><g><path d="M 0 -22.140625 L 0 -20.5625 L 0.984375 -20.5625 C 2.46875 -20.5625 2.4375 -19.484375 2.4375 -18.53125 L 2.4375 -8.375 C 2.4375 -4.046875 3.28125 0.46875 9.359375 0.46875 C 10.875 0.46875 12.65625 -0.25 12.8125 -1.390625 C 12.484375 -1.453125 12.234375 -1.421875 11.984375 -1.578125 C 10.3125 -2.625 10.46875 -5.3125 10.46875 -7.78125 L 10.46875 -20.5625 L 13.1875 -20.5625 L 13.1875 -22.140625 L 10.46875 -22.140625 L 10.46875 -27.984375 C 10.46875 -28.4375 10.25 -28.75 9.859375 -28.75 C 8.609375 -28.75 3.1875 -22.140625 0 -22.140625 Z M 0 -22.140625 "/></g></g></g><g fill="#e81e11" fill-opacity="1"><g transform="translate(121.369418, 33.895576)"><g><path d="M 4.015625 -2.78125 C 6.171875 -0.59375 8.984375 0.46875 11.859375 0.46875 C 14.796875 0.46875 17.8125 -0.703125 20.109375 -3.03125 C 24.640625 -7.625 24.765625 -14.890625 20.359375 -19.328125 C 18.21875 -21.5 15.40625 -22.578125 12.53125 -22.578125 C 9.578125 -22.578125 6.578125 -21.40625 4.265625 -19.09375 C -0.28125 -14.515625 -0.375 -7.234375 4.015625 -2.78125 Z M 10.65625 -20.90625 C 12.71875 -21.21875 15.046875 -17.046875 15.875 -11.578125 C 16.703125 -6.015625 15.71875 -1.359375 13.6875 -1.046875 C 11.640625 -0.734375 9.296875 -4.875 8.4375 -10.375 C 7.59375 -15.90625 8.578125 -20.59375 10.65625 -20.90625 Z M 10.65625 -20.90625 "/></g></g></g><g fill="#e81e11" fill-opacity="1"><g transform="translate(145.748303, 33.895576)"><g><path d="M -0.3125 -28.234375 C -0.3125 -27.859375 0.0625 -27.828125 0.15625 -27.796875 C 1.640625 -27.296875 1.515625 -25.75 1.515625 -25.359375 L 1.515625 -3.734375 C 1.515625 -1.921875 1.265625 -0.859375 0.40625 0 L 8.15625 0 C 9.515625 0 9.90625 -0.984375 9.90625 -2.59375 L 9.90625 -2.90625 C 9.90625 -3.359375 10.25 -3.125 10.46875 -2.78125 C 12.171875 -0.09375 14.078125 0.46875 15.71875 0.46875 C 21.40625 0.46875 24.671875 -4.484375 24.671875 -10.625 C 24.671875 -16.3125 21.953125 -22.609375 15.71875 -22.609375 C 12.203125 -22.609375 11.03125 -20.109375 10.40625 -20.109375 C 10.1875 -20.109375 10.03125 -20.140625 9.90625 -20.4375 L 9.90625 -30.859375 C 9.90625 -31.5 9.859375 -32.09375 8.953125 -32.09375 C 7.078125 -32.09375 1.296875 -29.1875 0.03125 -28.65625 C -0.03125 -28.625 -0.3125 -28.5625 -0.3125 -28.234375 Z M 9.90625 -8.46875 L 9.90625 -14.640625 C 9.90625 -16.25 10.21875 -19.296875 12.171875 -19.296875 C 15.6875 -19.296875 16.3125 -14.953125 16.3125 -11.515625 C 16.3125 -7.84375 16.1875 -3.484375 12.6875 -3.484375 C 10.15625 -3.484375 9.90625 -6.734375 9.90625 -8.46875 Z M 9.90625 -8.46875 "/></g></g></g><g fill="#e81e11" fill-opacity="1"><g transform="translate(171.202264, 33.895576)"><g><path d="M 0.796875 -4.9375 C 0.796875 -1.890625 3.359375 0.46875 6.421875 0.46875 C 10.9375 0.46875 11.859375 -2.46875 13.1875 -2.46875 C 13.65625 -2.46875 13.921875 -1.890625 14.015625 -1.359375 C 14.171875 -0.5 14.703125 0 15.65625 0 L 23.40625 0 C 22.546875 -0.859375 22.296875 -1.921875 22.296875 -3.734375 L 22.296875 -13.125 C 22.296875 -17.640625 18.875 -22.609375 11.609375 -22.609375 C 8.25 -22.609375 4.9375 -22.140625 2.78125 -20.078125 C 1.953125 -19.328125 2.15625 -18.1875 2.15625 -17.109375 L 2.15625 -15.375 C 2.15625 -14.828125 2.625 -14.359375 3.125 -14.359375 C 5.09375 -14.359375 7.140625 -20.8125 11.125 -20.875 C 13.46875 -20.90625 13.890625 -19.0625 13.890625 -17.671875 C 13.890625 -17.109375 13.65625 -16.484375 12.75 -16.28125 C 6.796875 -15.046875 0.796875 -11.671875 0.796875 -4.9375 Z M 12.75 -14.234375 C 13.59375 -14.234375 13.890625 -13.6875 13.890625 -12.265625 C 13.890625 -10.3125 13.921875 -9.140625 13.921875 -7.140625 C 13.921875 -5.09375 13.0625 -3.546875 11.359375 -3.546875 C 9.015625 -3.546875 8.34375 -5.6875 8.34375 -7.90625 C 8.34375 -11.796875 10.6875 -14.234375 12.75 -14.234375 Z M 12.75 -14.234375 "/></g></g></g><g fill="#e81e11" fill-opacity="1"><g transform="translate(194.75904, 33.895576)"><g><path d="M 0.15625 -27.796875 C 1.671875 -27.390625 1.515625 -25.75 1.515625 -25.359375 L 1.515625 -3.734375 C 1.515625 -1.921875 1.265625 -0.859375 0.40625 0 L 11 0 C 10.15625 -0.859375 9.90625 -1.921875 9.90625 -3.734375 L 9.90625 -7.203125 C 11.765625 -2.875 15.90625 0.46875 20.359375 0.46875 C 21.4375 0.46875 22.953125 0.46875 22.953125 -0.59375 L 22.953125 -6.703125 C 22.953125 -7.65625 23.046875 -8.703125 22.265625 -8.703125 C 21.09375 -8.703125 20.296875 -7.5 17.109375 -7.5 C 12.71875 -7.5 9.828125 -10.4375 9.828125 -13.0625 C 9.828125 -14.796875 11.15625 -16.28125 14.296875 -16.28125 C 18.5625 -16.28125 19.484375 -14.390625 21.6875 -14.390625 C 22.484375 -14.390625 22.765625 -15.046875 22.765625 -15.875 L 22.765625 -21.1875 C 22.765625 -22.140625 20.71875 -22.609375 19.234375 -22.609375 C 15.015625 -22.609375 11.578125 -20.296875 9.90625 -16.921875 L 9.90625 -30.859375 C 9.90625 -31.5 9.859375 -32.09375 8.953125 -32.09375 C 7.078125 -32.09375 1.296875 -29.1875 0.03125 -28.65625 C -0.03125 -28.625 -0.3125 -28.5625 -0.3125 -28.234375 C -0.3125 -27.859375 0.0625 -27.828125 0.15625 -27.796875 Z M 0.15625 -27.796875 "/></g></g></g><g fill="#e81e11" fill-opacity="1"><g transform="translate(218.347434, 33.895576)"><g><path d="M 0.796875 -10.46875 C 0.796875 -4.234375 6.296875 0.46875 12.359375 0.46875 C 18.4375 0.46875 21.125 -3.828125 21.125 -6.234375 C 21.125 -6.765625 20.84375 -6.890625 20.625 -6.890625 C 19.984375 -6.890625 19.515625 -5.25 16.515625 -5.25 C 12.875 -5.25 7.78125 -8.5 7.78125 -9.640625 C 7.78125 -10.1875 8.1875 -10.15625 8.5 -10.15625 C 14.078125 -10.15625 20.96875 -8.921875 20.96875 -14.171875 C 20.96875 -18.53125 17.765625 -22.609375 12.140625 -22.609375 C 4.75 -22.609375 0.796875 -17.390625 0.796875 -10.46875 Z M 4.328125 -16.25 C 4.328125 -18.0625 6.203125 -19.171875 7.96875 -19.171875 C 10.625 -19.171875 14.421875 -17.328125 14.421875 -14.046875 C 14.421875 -11.921875 10.90625 -11.671875 7.9375 -11.671875 C 5.375 -11.671875 4.328125 -14.015625 4.328125 -16.25 Z M 4.328125 -16.25 "/></g></g></g><g fill="#e81e11" fill-opacity="1"><g transform="translate(240.101892, 33.895576)"><g><path d="M 0.15625 -27.796875 C 1.671875 -27.390625 1.515625 -25.75 1.515625 -25.359375 L 1.515625 -3.734375 C 1.515625 -1.921875 1.265625 -0.859375 0.40625 0 L 11 0 C 10.15625 -0.859375 9.90625 -1.921875 9.90625 -3.734375 L 9.90625 -12.328125 C 9.90625 -15.84375 11.234375 -16.828125 12.6875 -16.828125 C 14.078125 -16.828125 14.484375 -15.46875 14.484375 -14.015625 L 14.484375 -3.734375 C 14.484375 -1.921875 14.234375 -0.859375 13.375 0 L 23.96875 0 C 23.125 -0.859375 22.859375 -1.921875 22.859375 -3.734375 L 22.859375 -9.140625 L 22.828125 -15.1875 C 22.828125 -18.46875 22.046875 -22.609375 17.421875 -22.609375 C 12.078125 -22.609375 11.421875 -18.21875 10.125 -18.21875 C 10.09375 -18.21875 10 -18.21875 9.90625 -18.21875 L 9.90625 -30.859375 C 9.90625 -31.5 9.859375 -32.09375 8.953125 -32.09375 C 7.078125 -32.09375 1.265625 -29.25 0.03125 -28.65625 C -0.03125 -28.625 -0.3125 -28.5625 -0.3125 -28.234375 C -0.3125 -27.859375 0.0625 -27.828125 0.15625 -27.796875 Z M 0.15625 -27.796875 "/></g></g></g><g fill="#e81e11" fill-opacity="1"><g transform="translate(264.702126, 33.895576)"><g><path d="M 4.015625 -2.78125 C 6.171875 -0.59375 8.984375 0.46875 11.859375 0.46875 C 14.796875 0.46875 17.8125 -0.703125 20.109375 -3.03125 C 24.640625 -7.625 24.765625 -14.890625 20.359375 -19.328125 C 18.21875 -21.5 15.40625 -22.578125 12.53125 -22.578125 C 9.578125 -22.578125 6.578125 -21.40625 4.265625 -19.09375 C -0.28125 -14.515625 -0.375 -7.234375 4.015625 -2.78125 Z M 10.65625 -20.90625 C 12.71875 -21.21875 15.046875 -17.046875 15.875 -11.578125 C 16.703125 -6.015625 15.71875 -1.359375 13.6875 -1.046875 C 11.640625 -0.734375 9.296875 -4.875 8.4375 -10.375 C 7.59375 -15.90625 8.578125 -20.59375 10.65625 -20.90625 Z M 10.65625 -20.90625 "/></g></g></g><g fill="#e81e11" fill-opacity="1"><g transform="translate(289.080999, 33.895576)"><g><path d="M 0.15625 -22.140625 C 1.015625 -21.28125 1.265625 -20.203125 1.265625 -18.40625 L 1.265625 -13 L 1.296875 -6.953125 C 1.296875 -3.671875 2.09375 0.46875 6.703125 0.46875 C 12.046875 0.46875 12.71875 -3.921875 14.015625 -3.921875 C 14.140625 -3.921875 14.234375 -3.921875 14.234375 -3.15625 L 14.234375 -2.625 C 14.234375 -1.015625 14.609375 0 15.96875 0 L 23.71875 0 C 22.859375 -0.859375 22.609375 -1.921875 22.609375 -3.734375 L 22.609375 -18.40625 C 22.609375 -20.203125 22.859375 -21.28125 23.71875 -22.140625 L 13.125 -22.140625 C 13.984375 -21.28125 14.234375 -20.203125 14.234375 -18.40625 L 14.234375 -9.796875 C 14.234375 -6.296875 12.90625 -5.3125 11.453125 -5.3125 C 10.0625 -5.3125 9.640625 -6.671875 9.640625 -8.125 L 9.640625 -18.40625 C 9.640625 -20.203125 9.90625 -21.28125 10.75 -22.140625 Z M 0.15625 -22.140625 "/></g></g></g><g fill="#e81e11" fill-opacity="1"><g transform="translate(313.112083, 33.895576)"><g><path d="M 0.46875 -15.8125 C 0.46875 -9.609375 7.140625 -7.59375 12.265625 -7.59375 C 14.671875 -7.59375 16.546875 -8 17.703125 -8 C 18.5625 -8 19.03125 -7.78125 19.03125 -7.015625 C 19.03125 -5.375 16.765625 -4.109375 14.578125 -4.109375 C 8.796875 -4.109375 5.5625 -8.28125 3.671875 -8.28125 C 2.375 -8.28125 0.625 -3.734375 0.625 -2.375 C 0.625 -0.765625 6.921875 0.46875 11.265625 0.46875 C 14.828125 0.46875 20.75 -1.328125 20.75 -7.171875 C 20.75 -13.28125 14.515625 -14.921875 8.921875 -15.90625 C 6.265625 -16.375 4.140625 -17.015625 4.140625 -18.5625 C 4.140625 -20.140625 5.5625 -20.75 6.671875 -20.75 C 10.625 -20.75 13.65625 -14.515625 17.875 -14.515625 C 19 -14.515625 20.8125 -16.703125 20.8125 -18.8125 C 20.8125 -20.65625 16.21875 -22.609375 10.65625 -22.609375 C 5.875 -22.609375 0.46875 -21.09375 0.46875 -15.8125 Z M 0.46875 -15.8125 "/></g></g></g><g fill="#e81e11" fill-opacity="1"><g transform="translate(334.392232, 33.895576)"><g><path d="M 0.796875 -10.46875 C 0.796875 -4.234375 6.296875 0.46875 12.359375 0.46875 C 18.4375 0.46875 21.125 -3.828125 21.125 -6.234375 C 21.125 -6.765625 20.84375 -6.890625 20.625 -6.890625 C 19.984375 -6.890625 19.515625 -5.25 16.515625 -5.25 C 12.875 -5.25 7.78125 -8.5 7.78125 -9.640625 C 7.78125 -10.1875 8.1875 -10.15625 8.5 -10.15625 C 14.078125 -10.15625 20.96875 -8.921875 20.96875 -14.171875 C 20.96875 -18.53125 17.765625 -22.609375 12.140625 -22.609375 C 4.75 -22.609375 0.796875 -17.390625 0.796875 -10.46875 Z M 4.328125 -16.25 C 4.328125 -18.0625 6.203125 -19.171875 7.96875 -19.171875 C 10.625 -19.171875 14.421875 -17.328125 14.421875 -14.046875 C 14.421875 -11.921875 10.90625 -11.671875 7.9375 -11.671875 C 5.375 -11.671875 4.328125 -14.015625 4.328125 -16.25 Z M 4.328125 -16.25 "/></g></g></g></svg>